<svg width="861" height="201" viewBox="0 0 861 201" fill="none" xmlns="http://www.w3.org/2000/svg">
<path d="M119.863 71.1716H91.3768C90.8565 65.7581 89.7942 60.9496 88.19 56.7462C86.5857 52.4791 84.5262 48.8489 82.0115 45.8555C79.4967 42.8622 76.5917 40.5694 73.2965 38.9772C70.0447 37.385 66.511 36.5889 62.6955 36.5889C55.8016 36.5889 49.7965 39.1046 44.6803 44.1359C39.5641 49.1036 35.5968 56.3641 32.7786 65.9173C29.9603 75.4068 28.5512 86.9344 28.5512 100.5C28.5512 114.448 29.9603 126.166 32.7786 135.656C35.6402 145.145 39.6291 152.31 44.7453 157.151C49.8616 161.991 55.7799 164.411 62.5004 164.411C66.2725 164.411 69.7629 163.679 72.9713 162.214C76.2232 160.749 79.1065 158.615 81.6212 155.813C84.136 152.947 86.2172 149.476 87.8648 145.4C89.5557 141.324 90.7264 136.675 91.3768 131.452L119.863 131.644C119.126 140.624 117.283 149.285 114.335 157.628C111.43 165.908 107.506 173.327 102.563 179.887C97.6637 186.384 91.8103 191.542 85.0032 195.364C78.2393 199.121 70.5867 201 62.0452 201C50.1651 201 39.5424 197.051 30.1771 189.154C20.8551 181.257 13.4843 169.825 8.06457 154.858C2.68819 139.891 0 121.772 0 100.5C0 79.1645 2.73155 61.0133 8.19464 46.0466C13.6577 31.0798 21.0719 19.6797 30.4372 11.846C39.8026 3.94867 50.3385 0 62.0452 0C69.7629 0 76.9169 1.59221 83.5073 4.77662C90.1411 7.96103 96.0161 12.6103 101.132 18.7243C106.249 24.7747 110.411 32.1944 113.619 40.9834C116.871 49.7723 118.952 59.8351 119.863 71.1716Z" fill="black"/>
<path d="M253.299 100.5C253.299 121.836 250.546 139.987 245.039 154.953C239.576 169.92 232.119 181.352 222.667 189.25C213.258 197.083 202.679 201 190.929 201C179.092 201 168.469 197.051 159.061 189.154C149.652 181.257 142.216 169.825 136.753 154.858C131.29 139.891 128.558 121.772 128.558 100.5C128.558 79.1645 131.29 61.0133 136.753 46.0466C142.216 31.0798 149.652 19.6797 159.061 11.846C168.469 3.94867 179.092 0 190.929 0C202.679 0 213.258 3.94867 222.667 11.846C232.119 19.6797 239.576 31.0798 245.039 46.0466C250.546 61.0133 253.299 79.1645 253.299 100.5ZM224.748 100.5C224.748 86.6797 223.339 75.0247 220.52 65.5352C217.746 56.0456 213.822 48.8489 208.749 43.9449C203.676 39.0409 197.736 36.5889 190.929 36.5889C184.121 36.5889 178.181 39.0409 173.109 43.9449C168.036 48.8489 164.09 56.0456 161.272 65.5352C158.497 75.0247 157.109 86.6797 157.109 100.5C157.109 114.32 158.497 125.975 161.272 135.465C164.09 144.954 168.036 152.151 173.109 157.055C178.181 161.959 184.121 164.411 190.929 164.411C197.736 164.411 203.676 161.959 208.749 157.055C213.822 152.151 217.746 144.954 220.52 135.465C223.339 125.975 224.748 114.32 224.748 100.5Z" fill="black"/>
<path d="M265.002 198.325V2.67491H317.552C327.611 2.67491 336.196 5.31797 343.307 10.6041C350.461 15.8265 355.902 23.2462 359.631 32.8631C363.403 42.4163 365.289 53.6573 365.289 66.586C365.289 79.5784 363.381 90.7557 359.566 100.118C355.75 109.416 350.222 116.549 342.982 121.517C335.784 126.485 327.069 128.969 316.837 128.969H281.652V95.7234H312.284C317.661 95.7234 322.126 94.6407 325.682 92.4753C329.237 90.3099 331.882 87.0618 333.616 82.731C335.394 78.4002 336.283 73.0185 336.283 66.586C336.283 60.0898 335.394 54.6126 333.616 50.1545C331.882 45.6963 329.215 42.3208 325.617 40.028C322.061 37.6716 317.574 36.4934 312.154 36.4934H293.163V198.325H265.002ZM336.933 109.289L370.037 198.325H338.949L306.561 109.289H336.933Z" fill="black"/>
<path d="M423.25 198.325H376.033V2.67491H423.64C437.038 2.67491 448.571 6.59173 458.24 14.4254C467.909 22.1953 475.345 33.3726 480.548 47.9572C485.794 62.5418 488.417 79.9924 488.417 100.309C488.417 120.689 485.794 138.203 480.548 152.852C475.345 167.5 467.865 178.741 458.11 186.575C448.398 194.408 436.778 198.325 423.25 198.325ZM404.194 162.883H422.079C430.404 162.883 437.406 160.717 443.086 156.386C448.81 151.992 453.102 145.209 455.964 136.038C458.869 126.803 460.321 114.894 460.321 100.309C460.321 85.8517 458.869 74.0375 455.964 64.8664C453.102 55.6953 448.831 48.9444 443.151 44.6136C437.471 40.2828 430.469 38.1174 422.144 38.1174H404.194V162.883Z" fill="black"/>
<path d="M500.12 198.325V2.67491H589.871V36.7799H528.281V83.3997H585.254V117.505H528.281V164.22H590.131V198.325H500.12Z" fill="black"/>
<path d="M603.103 198.325V2.67491H631.264V164.22H688.366V198.325H603.103Z" fill="black"/>
<path d="M726.019 2.67491V198.325H697.858V2.67491H726.019Z" fill="black"/>
<path d="M762.989 198.325H732.812L778.793 2.67491H815.084L861 198.325H830.823L797.459 47.384H796.418L762.989 198.325ZM761.103 121.422H832.384V153.711H761.103V121.422Z" fill="black"/>
</svg>
